<?xml version="1.0" encoding="utf-8"?>
<!-- Uploaded to: SVG Repo, www.svgrepo.com, Generator: SVG Repo Mixer Tools -->
<svg width="800px" height="800px" viewBox="0 0 1024 1024" class="icon"  version="1.1" xmlns="http://www.w3.org/2000/svg"><path d="M796.839 549.833H692.601v39.908h84.281v244.945h-512.25V589.741h84.28v-39.908H244.674l-19.957 19.954v284.852l19.957 19.955h552.165l19.956-19.955V569.787z" fill="#300604" /><path d="M247.885 575.611h545.743v271.09H247.885z" fill="#FCE3C3" /><path d="M519.828 258.564c-78.125 0-141.653 63.53-141.653 141.653 0 54.371 30.907 103.594 79.553 127.345v61.239c0 17.17 10.305 32.053 25.186 38.634v13.164c0 14.882 12.018 26.9 26.899 26.9h20.605c14.88 0 26.9-12.018 26.9-26.9v-13.162c14.88-6.581 25.183-21.464 25.183-38.635v-61.239c48.361-23.751 79.553-72.973 79.553-127.345-0.572-78.125-64.101-141.655-142.225-141.655l-0.001 0.001z" fill="#300604" /><path d="M530.418 669.999h-20.605c-16.211 0-29.399-13.188-29.399-29.4V629.03c-15.354-7.472-25.186-23.085-25.186-40.229v-59.688c-23.698-11.888-43.604-29.983-57.638-52.416-14.336-22.917-21.915-49.363-21.915-76.48 0-79.486 64.667-144.153 144.153-144.153 79.221-0.001 144.145 64.658 144.727 144.135 0 27.084-7.616 53.531-22.023 76.502a144.9 144.9 0 0 1-57.53 52.409v59.691c0 17.145-9.83 32.759-25.183 40.23v11.567c-0.001 16.213-13.19 29.401-29.401 29.401z m-10.589-408.937c-76.73 0.001-139.154 62.425-139.154 139.154 0 26.179 7.315 51.708 21.153 73.829 13.813 22.079 33.522 39.808 56.996 51.27l1.403 0.685v62.801c0 15.714 9.302 29.981 23.697 36.348l1.489 0.658v14.792c0 13.454 10.945 24.4 24.399 24.4h20.605c13.455 0 24.4-10.946 24.4-24.4v-14.79l1.489-0.658C570.7 618.784 580 604.516 580 588.801v-62.797l1.398-0.687a139.908 139.908 0 0 0 56.896-51.273c13.908-22.174 21.259-47.703 21.259-73.827-0.56-76.722-63.241-139.155-139.724-139.155z" fill="#300604" /><path d="M530.127 647.469h-20.604c-3.718 0-6.869-3.15-6.869-6.868v-9.445h34.344v9.445c0 3.718-3.149 6.868-6.871 6.868z" fill="#FCE3C3" /><path d="M530.127 652.541h-20.604c-6.473 0-11.941-5.469-11.941-11.94v-14.518h44.487v14.518c0.001 6.471-5.468 11.94-11.942 11.94z m-22.401-16.313v4.373c0 0.924 0.874 1.796 1.797 1.796h20.604c0.925 0 1.799-0.872 1.799-1.796v-4.373h-24.2z" fill="#300604" /><path d="M539.573 611.123h-39.492c-12.303 0-22.322-10.015-22.322-22.322v-24.037h84.423v24.037c-0.288 12.307-10.305 22.322-22.609 22.322z" fill="#FCE3C3" /><path d="M539.573 613.623h-39.492c-13.687 0-24.822-11.135-24.822-24.822v-26.536h89.423v26.536c-0.32 13.713-11.583 24.822-25.109 24.822z m-59.314-46.358v21.536c0 10.93 8.892 19.822 19.822 19.822h39.492c10.833 0 19.854-8.918 20.109-19.881v-21.478h-79.423z" fill="#300604" /><path d="M519.828 465.178l-21.464-39.204h42.639l-21.176 39.204z" fill="#ED8F27" /><path d="M519.842 470.411l-25.696-46.938h51.049l-25.353 46.938z m-17.259-41.937l17.23 31.471 16.998-31.471h-34.228z" fill="#300604" /><path d="M567.904 511.823l-6.009 2.576v30.335h-32.052v-58.951c1.718-1.146 2.864-2.862 4.007-4.578l29.189-53.801c2.575-4.292 2.289-9.729-0.285-14.022-2.861-4.579-8.014-7.442-13.736-7.442h-58.665c-5.725 0-10.874 2.86-13.735 7.442-2.576 4.292-2.863 9.443-0.286 14.022l29.477 54.086c1.143 1.715 2.289 3.432 4.005 4.579v58.665h-32.051v-30.335l-6.01-2.576c-44.641-19.17-73.258-63.243-73.258-111.604 0-66.965 54.658-121.622 121.622-121.622 66.962 0 121.623 54.658 121.623 121.622-0.285 48.361-29.189 92.148-73.832 111.604h-0.004z" fill="#ED8F27" /><path d="M564.396 547.233h-37.052v-62.787l1.112-0.742c1.281-0.855 2.242-2.277 3.251-3.791l29.189-53.795c2.03-3.384 1.92-7.771-0.286-11.449-2.427-3.886-6.77-6.229-11.592-6.229h-58.665c-4.823 0-9.166 2.343-11.615 6.267-2.184 3.639-2.275 7.834-0.228 11.471l29.44 54.019c1.01 1.517 1.974 2.94 3.251 3.794l1.111 0.742v62.501h-37.051v-31.187l-4.495-1.927c-45.423-19.506-74.773-64.215-74.773-113.901 0-68.441 55.681-124.122 124.122-124.122s124.123 55.681 124.123 124.122c-0.291 49.378-29.861 94.079-75.333 113.896l-4.511 1.933v31.185z m-32.053-5h27.052V512.75l7.699-3.301c43.556-19.067 71.865-61.925 72.144-109.245 0-65.67-53.438-119.107-119.123-119.107-65.684 0-119.122 53.438-119.122 119.122 0 47.686 28.161 90.591 71.744 109.307l7.523 3.225v29.483h27.051v-54.937c-1.522-1.324-2.607-2.952-3.585-4.421l-0.115-0.189-29.477-54.086c-2.893-5.141-2.773-11.321 0.338-16.504 3.392-5.435 9.319-8.656 15.879-8.656h58.665c6.558 0 12.485 3.222 15.856 8.618 3.171 5.287 3.29 11.62 0.338 16.582l-29.282 53.95c-0.978 1.469-2.062 3.096-3.587 4.421v55.221z" fill="#300604" /><path d="M278.274 371.91h53.127v20.517h-53.127z" fill="#ED8F27" /><path d="M336.473 397.5h-63.271v-30.662h63.271V397.5z m-53.127-10.145h42.983v-10.373h-42.983v10.373z" fill="#ED8F27" /><path d="M362.004 222.035l37.566 37.566-14.509 14.508-37.565-37.566z" fill="#ED8F27" /><path d="M385.061 281.283l-44.738-44.737 21.684-21.679 44.738 44.739-21.684 21.677z m-30.393-44.737l30.394 30.394 7.336-7.335-30.393-30.394-7.337 7.335z" fill="#ED8F27" /><path d="M637.119 259.606l37.566-37.566 14.507 14.507-37.565 37.565-14.508-14.506z" fill="#ED8F27" /><path d="M651.627 281.285l-21.68-21.68 44.738-44.738 21.68 21.68-44.738 44.738z m-7.335-21.68l7.335 7.334 30.393-30.393-7.334-7.334-30.394 30.393z" fill="#ED8F27" /><path d="M704.746 371.91h53.126v20.517h-53.126z" fill="#ED8F27" /><path d="M762.944 397.5h-63.27v-30.662h63.27V397.5z m-53.126-10.145H752.8v-10.373h-42.982v10.373z" fill="#ED8F27" /><path d="M507.814 167.652h20.517v53.126h-20.517z" fill="#ED8F27" /><path d="M533.403 225.851h-30.661V162.58h30.661v63.271z m-20.517-10.145h10.374v-42.981h-10.374v42.981z" fill="#ED8F27" /><path d="M331.401 692.599h84.407v84.407h-84.407zM478.524 692.599h84.407v84.407h-84.407zM625.648 692.599h84.407v84.407h-84.407z" fill="#B12800" /></svg>